<svg xmlns="http://www.w3.org/2000/svg" xmlns:xlink="http://www.w3.org/1999/xlink" width="500" zoomAndPan="magnify" viewBox="0 0 375 374.999991" height="500" preserveAspectRatio="xMidYMid meet" version="1.0"><defs><clipPath id="cad20d19d9"><path d="M 95 96 L 282 96 L 282 279.582031 L 95 279.582031 Z M 95 96 " clip-rule="nonzero"/></clipPath></defs><path fill="#156cdd" d="M 77.609375 0 L 297.390625 0 C 298.660156 0 299.929688 0.03125 301.199219 0.09375 C 302.46875 0.15625 303.734375 0.25 304.996094 0.375 C 306.261719 0.5 307.523438 0.652344 308.777344 0.839844 C 310.035156 1.027344 311.285156 1.242188 312.53125 1.492188 C 313.777344 1.738281 315.015625 2.015625 316.25 2.324219 C 317.480469 2.632812 318.703125 2.972656 319.917969 3.34375 C 321.136719 3.710938 322.339844 4.109375 323.535156 4.535156 C 324.730469 4.964844 325.917969 5.421875 327.089844 5.90625 C 328.265625 6.394531 329.425781 6.910156 330.574219 7.453125 C 331.722656 7.996094 332.855469 8.566406 333.976562 9.164062 C 335.09375 9.761719 336.199219 10.386719 337.289062 11.042969 C 338.378906 11.695312 339.453125 12.375 340.507812 13.078125 C 341.5625 13.785156 342.601562 14.515625 343.621094 15.273438 C 344.644531 16.03125 345.644531 16.8125 346.625 17.617188 C 347.605469 18.421875 348.570312 19.25 349.511719 20.105469 C 350.449219 20.957031 351.371094 21.832031 352.269531 22.730469 C 353.167969 23.628906 354.042969 24.550781 354.894531 25.488281 C 355.75 26.429688 356.578125 27.394531 357.382812 28.375 C 358.1875 29.355469 358.96875 30.355469 359.726562 31.378906 C 360.484375 32.398438 361.214844 33.4375 361.921875 34.492188 C 362.625 35.546875 363.304688 36.621094 363.957031 37.710938 C 364.609375 38.800781 365.238281 39.90625 365.835938 41.023438 C 366.433594 42.144531 367.003906 43.277344 367.546875 44.425781 C 368.089844 45.574219 368.605469 46.734375 369.09375 47.910156 C 369.578125 49.082031 370.035156 50.265625 370.464844 51.464844 C 370.890625 52.660156 371.289062 53.863281 371.65625 55.082031 C 372.027344 56.296875 372.367188 57.519531 372.675781 58.75 C 372.984375 59.984375 373.261719 61.222656 373.507812 62.46875 C 373.757812 63.714844 373.972656 64.964844 374.160156 66.222656 C 374.347656 67.476562 374.5 68.738281 374.625 70.003906 C 374.75 71.265625 374.84375 72.53125 374.90625 73.800781 C 374.96875 75.070312 375 76.339844 375 77.609375 L 375 297.390625 C 375 298.660156 374.96875 299.929688 374.90625 301.199219 C 374.84375 302.46875 374.75 303.734375 374.625 304.996094 C 374.5 306.261719 374.347656 307.523438 374.160156 308.777344 C 373.972656 310.035156 373.757812 311.285156 373.507812 312.53125 C 373.261719 313.777344 372.984375 315.015625 372.675781 316.25 C 372.367188 317.480469 372.027344 318.703125 371.65625 319.917969 C 371.289062 321.136719 370.890625 322.339844 370.464844 323.535156 C 370.035156 324.730469 369.578125 325.917969 369.09375 327.089844 C 368.605469 328.265625 368.089844 329.425781 367.546875 330.574219 C 367.003906 331.722656 366.433594 332.855469 365.835938 333.976562 C 365.238281 335.09375 364.609375 336.199219 363.957031 337.289062 C 363.304688 338.378906 362.625 339.453125 361.921875 340.507812 C 361.214844 341.5625 360.484375 342.601562 359.726562 343.621094 C 358.96875 344.644531 358.1875 345.644531 357.382812 346.625 C 356.578125 347.605469 355.75 348.570312 354.894531 349.511719 C 354.042969 350.449219 353.167969 351.371094 352.269531 352.269531 C 351.371094 353.167969 350.449219 354.042969 349.511719 354.894531 C 348.570312 355.75 347.605469 356.578125 346.625 357.382812 C 345.644531 358.1875 344.644531 358.96875 343.621094 359.726562 C 342.601562 360.484375 341.5625 361.214844 340.507812 361.921875 C 339.453125 362.625 338.378906 363.304688 337.289062 363.957031 C 336.199219 364.609375 335.09375 365.238281 333.976562 365.835938 C 332.855469 366.433594 331.722656 367.003906 330.574219 367.546875 C 329.425781 368.089844 328.265625 368.605469 327.089844 369.09375 C 325.917969 369.578125 324.730469 370.035156 323.535156 370.464844 C 322.339844 370.890625 321.136719 371.289062 319.917969 371.65625 C 318.703125 372.027344 317.480469 372.367188 316.25 372.675781 C 315.015625 372.984375 313.777344 373.261719 312.53125 373.507812 C 311.285156 373.757812 310.035156 373.972656 308.777344 374.160156 C 307.523438 374.347656 306.261719 374.5 304.996094 374.625 C 303.734375 374.75 302.46875 374.84375 301.199219 374.90625 C 299.929688 374.96875 298.660156 375 297.390625 375 L 77.609375 375 C 76.339844 375 75.070312 374.96875 73.800781 374.90625 C 72.53125 374.84375 71.265625 374.75 70.003906 374.625 C 68.738281 374.5 67.476562 374.347656 66.222656 374.160156 C 64.964844 373.972656 63.714844 373.757812 62.46875 373.507812 C 61.222656 373.261719 59.984375 372.984375 58.75 372.675781 C 57.519531 372.367188 56.296875 372.027344 55.082031 371.65625 C 53.863281 371.289062 52.660156 370.890625 51.464844 370.464844 C 50.265625 370.035156 49.082031 369.578125 47.910156 369.09375 C 46.734375 368.605469 45.574219 368.089844 44.425781 367.546875 C 43.277344 367.003906 42.144531 366.433594 41.023438 365.835938 C 39.90625 365.238281 38.800781 364.609375 37.710938 363.957031 C 36.621094 363.304688 35.546875 362.625 34.492188 361.921875 C 33.4375 361.214844 32.398438 360.484375 31.378906 359.726562 C 30.355469 358.96875 29.355469 358.1875 28.375 357.382812 C 27.394531 356.578125 26.429688 355.75 25.488281 354.894531 C 24.550781 354.042969 23.628906 353.167969 22.730469 352.269531 C 21.832031 351.371094 20.957031 350.449219 20.105469 349.511719 C 19.25 348.570312 18.421875 347.605469 17.617188 346.625 C 16.8125 345.644531 16.03125 344.644531 15.273438 343.621094 C 14.515625 342.601562 13.785156 341.5625 13.078125 340.507812 C 12.375 339.453125 11.695312 338.378906 11.042969 337.289062 C 10.386719 336.199219 9.761719 335.09375 9.164062 333.976562 C 8.566406 332.855469 7.996094 331.722656 7.453125 330.574219 C 6.910156 329.425781 6.394531 328.265625 5.90625 327.089844 C 5.421875 325.917969 4.964844 324.730469 4.535156 323.535156 C 4.109375 322.339844 3.710938 321.136719 3.34375 319.917969 C 2.972656 318.703125 2.632812 317.480469 2.324219 316.25 C 2.015625 315.015625 1.738281 313.777344 1.492188 312.53125 C 1.242188 311.285156 1.027344 310.035156 0.839844 308.777344 C 0.652344 307.523438 0.5 306.261719 0.375 304.996094 C 0.25 303.734375 0.15625 302.46875 0.09375 301.199219 C 0.03125 299.929688 0 298.660156 0 297.390625 L 0 77.609375 C 0 76.339844 0.03125 75.070312 0.09375 73.800781 C 0.15625 72.53125 0.25 71.265625 0.375 70.003906 C 0.5 68.738281 0.652344 67.476562 0.839844 66.222656 C 1.027344 64.964844 1.242188 63.714844 1.492188 62.46875 C 1.738281 61.222656 2.015625 59.984375 2.324219 58.75 C 2.632812 57.519531 2.972656 56.296875 3.34375 55.082031 C 3.710938 53.863281 4.109375 52.660156 4.535156 51.464844 C 4.964844 50.265625 5.421875 49.082031 5.90625 47.910156 C 6.394531 46.734375 6.910156 45.574219 7.453125 44.425781 C 7.996094 43.277344 8.566406 42.144531 9.164062 41.023438 C 9.761719 39.90625 10.386719 38.800781 11.042969 37.710938 C 11.695312 36.621094 12.375 35.546875 13.078125 34.492188 C 13.785156 33.4375 14.515625 32.398438 15.273438 31.378906 C 16.03125 30.355469 16.8125 29.355469 17.617188 28.375 C 18.421875 27.394531 19.25 26.429688 20.105469 25.488281 C 20.957031 24.550781 21.832031 23.628906 22.730469 22.730469 C 23.628906 21.832031 24.550781 20.957031 25.488281 20.105469 C 26.429688 19.25 27.394531 18.421875 28.375 17.617188 C 29.355469 16.8125 30.355469 16.03125 31.378906 15.273438 C 32.398438 14.515625 33.4375 13.785156 34.492188 13.078125 C 35.546875 12.375 36.621094 11.695312 37.710938 11.042969 C 38.800781 10.386719 39.90625 9.761719 41.023438 9.164062 C 42.144531 8.566406 43.277344 7.996094 44.425781 7.453125 C 45.574219 6.910156 46.734375 6.394531 47.910156 5.90625 C 49.082031 5.421875 50.265625 4.964844 51.464844 4.535156 C 52.660156 4.109375 53.863281 3.710938 55.082031 3.34375 C 56.296875 2.972656 57.519531 2.632812 58.75 2.324219 C 59.984375 2.015625 61.222656 1.738281 62.46875 1.492188 C 63.714844 1.242188 64.964844 1.027344 66.222656 0.839844 C 67.476562 0.652344 68.738281 0.5 70.003906 0.375 C 71.265625 0.25 72.53125 0.15625 73.800781 0.09375 C 75.070312 0.03125 76.339844 0 77.609375 0 Z M 77.609375 0 " fill-opacity="1" fill-rule="nonzero"/><g clip-path="url(#cad20d19d9)"><path fill="#ffffff" d="M 202.542969 134.207031 L 148.035156 188.558594 C 137.222656 199.335938 137.222656 216.871094 148.035156 227.648438 C 158.84375 238.4375 176.441406 238.425781 187.242188 227.648438 L 233.671875 181.359375 C 237.15625 177.882812 237.15625 172.253906 233.671875 168.777344 C 230.1875 165.304688 224.539062 165.304688 221.054688 168.777344 L 174.625 215.066406 C 170.773438 218.894531 164.515625 218.90625 160.652344 215.066406 C 156.800781 211.226562 156.800781 204.976562 160.652344 201.136719 L 215.164062 146.785156 C 226.351562 135.640625 244.546875 135.640625 255.726562 146.785156 C 261.140625 152.191406 264.125 159.371094 264.125 167.011719 C 264.125 174.644531 261.140625 181.828125 255.726562 187.230469 L 194.566406 248.203125 C 185.597656 257.148438 173.671875 262.070312 160.988281 262.070312 C 148.304688 262.070312 136.386719 257.148438 127.414062 248.203125 C 108.898438 229.746094 108.898438 199.714844 127.414062 181.253906 L 197.6875 111.1875 C 201.171875 107.714844 201.171875 102.082031 197.6875 98.609375 C 194.203125 95.132812 188.554688 95.132812 185.070312 98.609375 L 114.796875 168.675781 C 89.320312 194.066406 89.320312 235.390625 114.796875 260.785156 C 127.128906 273.085938 143.535156 279.863281 160.988281 279.863281 C 178.441406 279.863281 194.847656 273.085938 207.1875 260.785156 L 268.34375 199.8125 C 286.488281 181.722656 286.488281 152.292969 268.34375 134.207031 C 250.210938 116.132812 220.6875 116.109375 202.542969 134.207031 Z M 202.542969 134.207031 " fill-opacity="1" fill-rule="nonzero"/></g></svg>